# xmcd
#
# Track frame offsets: 
#        150
#        17892
#        37951
#        57939
#        80281
#        99992
#        116470
#        137527
#        156644
#        178173
#        196000
#        214723
#        230707
#        249835
#
# Disc length: 3559 seconds
#
# Revision: 1
# Processed by: cddbd v1.5.2PL0 Copyright (c) Steve Scherf et al.
# Submitted via: ExactAudioCopy v0.99pb4
#
DISCID=b30de50e
DTITLE=Виктор Королёв - Украденная ночь
DYEAR=2003
DGENRE=Шансон
TTITLE0=Украденная ночь
TTITLE1=Заледенели прекрасные розы
TTITLE2=А, помнишь?
TTITLE3=Пьяная вишня
TTITLE4=Было или нет
TTITLE5=А я звал тебя красивой
TTITLE6=Крестик
TTITLE7=Ах, какие ты говорила слова
TTITLE8=Не шумите, ради Бога, тише
TTITLE9=Горькие слёзы
TTITLE10=Не надо
TTITLE11=Ты права
TTITLE12=Дым кольцами
TTITLE13=А я налью себе вина
EXTD=
EXTT0=
EXTT1=
EXTT2=
EXTT3=
EXTT4=
EXTT5=
EXTT6=
EXTT7=
EXTT8=
EXTT9=
EXTT10=
EXTT11=
EXTT12=
EXTT13=
PLAYORDER=
